<mxfile host="app.diagrams.net" agent="Mozilla/5.0 (Windows NT 10.0; Win64; x64) AppleWebKit/537.36 (KHTML, like Gecko) Chrome/128.0.0.0 Safari/537.36" version="24.7.7">
  <diagram name="PÃ¡gina-1" id="T5x7os5gUXL9nlf1mJ_7">
    <mxGraphModel dx="2526" dy="897" grid="1" gridSize="10" guides="1" tooltips="1" connect="1" arrows="1" fold="1" page="0" pageScale="1" pageWidth="827" pageHeight="1169" math="0" shadow="0">
      <root>
        <mxCell id="0" />
        <mxCell id="1" parent="0" />
        <mxCell id="-V9PEWpt8kwC3jf9DyMC-42" style="edgeStyle=orthogonalEdgeStyle;rounded=0;orthogonalLoop=1;jettySize=auto;html=1;entryX=1;entryY=0.5;entryDx=0;entryDy=0;" parent="1" source="PH0fKFDygFaY0S8TYysQ-1" target="-V9PEWpt8kwC3jf9DyMC-40" edge="1">
          <mxGeometry relative="1" as="geometry" />
        </mxCell>
        <mxCell id="-V9PEWpt8kwC3jf9DyMC-50" style="edgeStyle=orthogonalEdgeStyle;rounded=0;orthogonalLoop=1;jettySize=auto;html=1;entryX=0.5;entryY=0;entryDx=0;entryDy=0;" parent="1" source="PH0fKFDygFaY0S8TYysQ-1" target="-V9PEWpt8kwC3jf9DyMC-48" edge="1">
          <mxGeometry relative="1" as="geometry" />
        </mxCell>
        <mxCell id="PH0fKFDygFaY0S8TYysQ-1" value="Auto" style="rounded=0;whiteSpace=wrap;html=1;" parent="1" vertex="1">
          <mxGeometry x="-9.56" y="220" width="120" height="60" as="geometry" />
        </mxCell>
        <mxCell id="j67aejT58WKei2PpF9pA-4" value="" style="edgeStyle=orthogonalEdgeStyle;rounded=0;orthogonalLoop=1;jettySize=auto;html=1;" parent="1" source="PH0fKFDygFaY0S8TYysQ-17" target="PH0fKFDygFaY0S8TYysQ-1" edge="1">
          <mxGeometry relative="1" as="geometry" />
        </mxCell>
        <mxCell id="PH0fKFDygFaY0S8TYysQ-17" value="&lt;font style=&quot;vertical-align: inherit;&quot;&gt;&lt;font style=&quot;vertical-align: inherit;&quot;&gt;Modelo&lt;/font&gt;&lt;/font&gt;" style="ellipse;whiteSpace=wrap;html=1;" parent="1" vertex="1">
          <mxGeometry x="-70" y="-20" width="120" height="80" as="geometry" />
        </mxCell>
        <mxCell id="PH0fKFDygFaY0S8TYysQ-21" style="edgeStyle=orthogonalEdgeStyle;rounded=0;orthogonalLoop=1;jettySize=auto;html=1;entryX=0.828;entryY=-0.063;entryDx=0;entryDy=0;entryPerimeter=0;" parent="1" source="PH0fKFDygFaY0S8TYysQ-18" target="PH0fKFDygFaY0S8TYysQ-1" edge="1">
          <mxGeometry relative="1" as="geometry" />
        </mxCell>
        <mxCell id="PH0fKFDygFaY0S8TYysQ-18" value="&lt;font style=&quot;vertical-align: inherit;&quot;&gt;&lt;font style=&quot;vertical-align: inherit;&quot;&gt;Codigo&lt;/font&gt;&lt;/font&gt;" style="ellipse;whiteSpace=wrap;html=1;" parent="1" vertex="1">
          <mxGeometry x="50" y="30" width="120" height="80" as="geometry" />
        </mxCell>
        <mxCell id="LQoHi4SSd0LHbjNb0xn5-1" style="edgeStyle=orthogonalEdgeStyle;rounded=0;orthogonalLoop=1;jettySize=auto;html=1;entryX=1;entryY=0.5;entryDx=0;entryDy=0;" parent="1" source="PH0fKFDygFaY0S8TYysQ-26" target="_848j0c37ikoBSJLKILt-69" edge="1">
          <mxGeometry relative="1" as="geometry" />
        </mxCell>
        <mxCell id="73-wHCDdlTz_QuVUMdYH-22" style="edgeStyle=orthogonalEdgeStyle;rounded=0;orthogonalLoop=1;jettySize=auto;html=1;entryX=0.5;entryY=0;entryDx=0;entryDy=0;" edge="1" parent="1" source="PH0fKFDygFaY0S8TYysQ-26" target="73-wHCDdlTz_QuVUMdYH-21">
          <mxGeometry relative="1" as="geometry" />
        </mxCell>
        <mxCell id="PH0fKFDygFaY0S8TYysQ-26" value="Venta" style="rounded=0;whiteSpace=wrap;html=1;" parent="1" vertex="1">
          <mxGeometry x="-540" y="221.00000000000006" width="120" height="59" as="geometry" />
        </mxCell>
        <mxCell id="PH0fKFDygFaY0S8TYysQ-30" value="PrecioFinal" style="ellipse;whiteSpace=wrap;html=1;" parent="1" vertex="1">
          <mxGeometry x="-379.9999999999999" y="370.00000000000006" width="120" height="80" as="geometry" />
        </mxCell>
        <mxCell id="PH0fKFDygFaY0S8TYysQ-39" style="edgeStyle=orthogonalEdgeStyle;rounded=0;orthogonalLoop=1;jettySize=auto;html=1;entryX=1;entryY=0.75;entryDx=0;entryDy=0;" parent="1" source="PH0fKFDygFaY0S8TYysQ-31" target="PH0fKFDygFaY0S8TYysQ-26" edge="1">
          <mxGeometry relative="1" as="geometry" />
        </mxCell>
        <mxCell id="PH0fKFDygFaY0S8TYysQ-31" value="&lt;font style=&quot;vertical-align: inherit;&quot;&gt;&lt;font style=&quot;vertical-align: inherit;&quot;&gt;Metodo_pago&lt;/font&gt;&lt;/font&gt;" style="ellipse;whiteSpace=wrap;html=1;" parent="1" vertex="1">
          <mxGeometry x="-379.99999999999994" y="270.00000000000006" width="120" height="80" as="geometry" />
        </mxCell>
        <mxCell id="-V9PEWpt8kwC3jf9DyMC-41" style="edgeStyle=orthogonalEdgeStyle;rounded=0;orthogonalLoop=1;jettySize=auto;html=1;entryX=0;entryY=0.5;entryDx=0;entryDy=0;" parent="1" source="d1OCv34pY1rkLHPsV5Z9-1" edge="1">
          <mxGeometry relative="1" as="geometry">
            <mxPoint x="-929.9999999999998" y="240" as="targetPoint" />
          </mxGeometry>
        </mxCell>
        <mxCell id="d1OCv34pY1rkLHPsV5Z9-1" value="&lt;font style=&quot;vertical-align: inherit;&quot;&gt;&lt;font style=&quot;vertical-align: inherit;&quot;&gt;Cliente&lt;/font&gt;&lt;/font&gt;" style="rounded=0;whiteSpace=wrap;html=1;" parent="1" vertex="1">
          <mxGeometry x="-1200" y="210" width="120" height="60" as="geometry" />
        </mxCell>
        <mxCell id="d1OCv34pY1rkLHPsV5Z9-14" style="edgeStyle=orthogonalEdgeStyle;rounded=0;orthogonalLoop=1;jettySize=auto;html=1;entryX=0.995;entryY=0.167;entryDx=0;entryDy=0;entryPerimeter=0;" parent="1" source="d1OCv34pY1rkLHPsV5Z9-13" target="PH0fKFDygFaY0S8TYysQ-1" edge="1">
          <mxGeometry relative="1" as="geometry">
            <Array as="points">
              <mxPoint x="220" y="190" />
              <mxPoint x="140" y="190" />
              <mxPoint x="140" y="230" />
            </Array>
            <mxPoint x="130" y="230" as="targetPoint" />
          </mxGeometry>
        </mxCell>
        <mxCell id="d1OCv34pY1rkLHPsV5Z9-13" value="&lt;font style=&quot;vertical-align: inherit;&quot;&gt;&lt;font style=&quot;vertical-align: inherit;&quot;&gt;Precio&lt;/font&gt;&lt;/font&gt;" style="ellipse;whiteSpace=wrap;html=1;" parent="1" vertex="1">
          <mxGeometry x="190" y="88" width="120" height="80" as="geometry" />
        </mxCell>
        <mxCell id="FsSanW1JUB_QtHKIwKyV-4" style="edgeStyle=orthogonalEdgeStyle;rounded=0;orthogonalLoop=1;jettySize=auto;html=1;entryX=0.25;entryY=1;entryDx=0;entryDy=0;" parent="1" source="FsSanW1JUB_QtHKIwKyV-1" target="d1OCv34pY1rkLHPsV5Z9-1" edge="1">
          <mxGeometry relative="1" as="geometry" />
        </mxCell>
        <mxCell id="FsSanW1JUB_QtHKIwKyV-1" value="&lt;font style=&quot;vertical-align: inherit;&quot;&gt;&lt;font style=&quot;vertical-align: inherit;&quot;&gt;Direccion&lt;/font&gt;&lt;/font&gt;" style="ellipse;whiteSpace=wrap;html=1;" parent="1" vertex="1">
          <mxGeometry x="-1350" y="320" width="120" height="80" as="geometry" />
        </mxCell>
        <mxCell id="FsSanW1JUB_QtHKIwKyV-5" style="edgeStyle=orthogonalEdgeStyle;rounded=0;orthogonalLoop=1;jettySize=auto;html=1;entryX=0.75;entryY=1;entryDx=0;entryDy=0;" parent="1" target="d1OCv34pY1rkLHPsV5Z9-1" edge="1">
          <mxGeometry relative="1" as="geometry">
            <mxPoint x="-1109.9999999999998" y="340" as="sourcePoint" />
          </mxGeometry>
        </mxCell>
        <mxCell id="FsSanW1JUB_QtHKIwKyV-2" value="&lt;font style=&quot;vertical-align: inherit;&quot;&gt;&lt;font style=&quot;vertical-align: inherit;&quot;&gt;id&lt;/font&gt;&lt;/font&gt;" style="ellipse;whiteSpace=wrap;html=1;" parent="1" vertex="1">
          <mxGeometry x="-1180" y="340" width="120" height="80" as="geometry" />
        </mxCell>
        <mxCell id="-V9PEWpt8kwC3jf9DyMC-34" style="edgeStyle=orthogonalEdgeStyle;rounded=0;orthogonalLoop=1;jettySize=auto;html=1;entryX=0;entryY=0.25;entryDx=0;entryDy=0;" parent="1" source="FsSanW1JUB_QtHKIwKyV-3" target="d1OCv34pY1rkLHPsV5Z9-1" edge="1">
          <mxGeometry relative="1" as="geometry" />
        </mxCell>
        <mxCell id="FsSanW1JUB_QtHKIwKyV-3" value="&lt;font style=&quot;vertical-align: inherit;&quot;&gt;&lt;font style=&quot;vertical-align: inherit;&quot;&gt;Nombre&lt;/font&gt;&lt;/font&gt;" style="ellipse;whiteSpace=wrap;html=1;" parent="1" vertex="1">
          <mxGeometry x="-1390" y="230" width="120" height="80" as="geometry" />
        </mxCell>
        <mxCell id="-V9PEWpt8kwC3jf9DyMC-6" style="edgeStyle=orthogonalEdgeStyle;rounded=0;orthogonalLoop=1;jettySize=auto;html=1;entryX=0.158;entryY=-0.002;entryDx=0;entryDy=0;entryPerimeter=0;exitX=0.875;exitY=0.859;exitDx=0;exitDy=0;exitPerimeter=0;" parent="1" source="j67aejT58WKei2PpF9pA-2" target="PH0fKFDygFaY0S8TYysQ-1" edge="1">
          <mxGeometry relative="1" as="geometry">
            <mxPoint x="7.240000000000009" y="208.42000000000002" as="targetPoint" />
            <Array as="points">
              <mxPoint x="-50" y="179" />
              <mxPoint x="10" y="179" />
              <mxPoint x="10" y="208" />
            </Array>
            <mxPoint x="-49.99999999999977" y="131.55083193570243" as="sourcePoint" />
          </mxGeometry>
        </mxCell>
        <mxCell id="j67aejT58WKei2PpF9pA-2" value="Tipo" style="ellipse;whiteSpace=wrap;html=1;" parent="1" vertex="1">
          <mxGeometry x="-120" y="80" width="80" height="60" as="geometry" />
        </mxCell>
        <mxCell id="-V9PEWpt8kwC3jf9DyMC-8" style="edgeStyle=orthogonalEdgeStyle;rounded=0;orthogonalLoop=1;jettySize=auto;html=1;entryX=0.75;entryY=1;entryDx=0;entryDy=0;" parent="1" source="-V9PEWpt8kwC3jf9DyMC-7" target="PH0fKFDygFaY0S8TYysQ-1" edge="1">
          <mxGeometry relative="1" as="geometry" />
        </mxCell>
        <mxCell id="-V9PEWpt8kwC3jf9DyMC-7" value="&lt;font style=&quot;vertical-align: inherit;&quot;&gt;&lt;font style=&quot;vertical-align: inherit;&quot;&gt;&lt;font style=&quot;vertical-align: inherit;&quot;&gt;&lt;font style=&quot;vertical-align: inherit;&quot;&gt;aÃ±o&lt;/font&gt;&lt;/font&gt;&lt;/font&gt;&lt;/font&gt;" style="ellipse;whiteSpace=wrap;html=1;" parent="1" vertex="1">
          <mxGeometry x="100" y="320" width="80" height="60" as="geometry" />
        </mxCell>
        <mxCell id="j67aejT58WKei2PpF9pA-32" style="edgeStyle=orthogonalEdgeStyle;rounded=0;orthogonalLoop=1;jettySize=auto;html=1;entryX=0.5;entryY=1;entryDx=0;entryDy=0;" parent="1" source="-V9PEWpt8kwC3jf9DyMC-17" target="-V9PEWpt8kwC3jf9DyMC-48" edge="1">
          <mxGeometry relative="1" as="geometry" />
        </mxCell>
        <mxCell id="-V9PEWpt8kwC3jf9DyMC-17" value="&lt;font style=&quot;vertical-align: inherit;&quot;&gt;&lt;font style=&quot;vertical-align: inherit;&quot;&gt;Detalle_auto&lt;/font&gt;&lt;/font&gt;" style="whiteSpace=wrap;html=1;" parent="1" vertex="1">
          <mxGeometry x="-9.559999999999999" y="720" width="120" height="60" as="geometry" />
        </mxCell>
        <mxCell id="-V9PEWpt8kwC3jf9DyMC-25" style="edgeStyle=orthogonalEdgeStyle;rounded=0;orthogonalLoop=1;jettySize=auto;html=1;entryX=0.25;entryY=0;entryDx=0;entryDy=0;" parent="1" edge="1" source="j67aejT58WKei2PpF9pA-13">
          <mxGeometry relative="1" as="geometry">
            <mxPoint x="-80" y="641.0508319357027" as="sourcePoint" />
            <mxPoint x="0.44000000000005457" y="718.94" as="targetPoint" />
            <Array as="points">
              <mxPoint x="-80" y="699" />
              <mxPoint y="699" />
            </Array>
          </mxGeometry>
        </mxCell>
        <mxCell id="-V9PEWpt8kwC3jf9DyMC-24" style="edgeStyle=orthogonalEdgeStyle;rounded=0;orthogonalLoop=1;jettySize=auto;html=1;entryX=0.75;entryY=0;entryDx=0;entryDy=0;" parent="1" source="j67aejT58WKei2PpF9pA-14" target="-V9PEWpt8kwC3jf9DyMC-17" edge="1">
          <mxGeometry relative="1" as="geometry">
            <Array as="points">
              <mxPoint x="130" y="700" />
              <mxPoint x="80" y="700" />
            </Array>
          </mxGeometry>
        </mxCell>
        <mxCell id="j67aejT58WKei2PpF9pA-19" value="Vel_max" style="ellipse;whiteSpace=wrap;html=1;" parent="1" vertex="1">
          <mxGeometry y="880" width="120" height="80" as="geometry" />
        </mxCell>
        <mxCell id="j67aejT58WKei2PpF9pA-20" value="TamaÃ±o" style="ellipse;whiteSpace=wrap;html=1;" parent="1" vertex="1">
          <mxGeometry x="140" y="850" width="120" height="80" as="geometry" />
        </mxCell>
        <mxCell id="-V9PEWpt8kwC3jf9DyMC-26" style="edgeStyle=orthogonalEdgeStyle;rounded=0;orthogonalLoop=1;jettySize=auto;html=1;entryX=0.25;entryY=1;entryDx=0;entryDy=0;" parent="1" source="j67aejT58WKei2PpF9pA-19" target="-V9PEWpt8kwC3jf9DyMC-17" edge="1">
          <mxGeometry relative="1" as="geometry" />
        </mxCell>
        <mxCell id="j67aejT58WKei2PpF9pA-17" value="Color" style="ellipse;whiteSpace=wrap;html=1;" parent="1" vertex="1">
          <mxGeometry x="220" y="730" width="120" height="80" as="geometry" />
        </mxCell>
        <mxCell id="_848j0c37ikoBSJLKILt-15" style="edgeStyle=orthogonalEdgeStyle;rounded=0;orthogonalLoop=1;jettySize=auto;html=1;exitX=0;exitY=0;exitDx=0;exitDy=0;entryX=0.917;entryY=1;entryDx=0;entryDy=0;entryPerimeter=0;" parent="1" source="j67aejT58WKei2PpF9pA-20" target="-V9PEWpt8kwC3jf9DyMC-17" edge="1">
          <mxGeometry relative="1" as="geometry" />
        </mxCell>
        <mxCell id="j67aejT58WKei2PpF9pA-14" value="Caballos" style="ellipse;whiteSpace=wrap;html=1;" parent="1" vertex="1">
          <mxGeometry x="110.44" y="600" width="120" height="80" as="geometry" />
        </mxCell>
        <mxCell id="j67aejT58WKei2PpF9pA-13" value="&lt;font style=&quot;vertical-align: inherit;&quot;&gt;&lt;font style=&quot;vertical-align: inherit;&quot;&gt;Motor&lt;/font&gt;&lt;/font&gt;" style="ellipse;whiteSpace=wrap;html=1;" parent="1" vertex="1">
          <mxGeometry x="-180" y="720" width="120" height="80" as="geometry" />
        </mxCell>
        <mxCell id="_848j0c37ikoBSJLKILt-68" style="edgeStyle=orthogonalEdgeStyle;rounded=0;orthogonalLoop=1;jettySize=auto;html=1;exitX=1;exitY=0.5;exitDx=0;exitDy=0;entryX=0;entryY=0.75;entryDx=0;entryDy=0;" parent="1" source="j67aejT58WKei2PpF9pA-25" target="PH0fKFDygFaY0S8TYysQ-26" edge="1">
          <mxGeometry relative="1" as="geometry" />
        </mxCell>
        <mxCell id="j67aejT58WKei2PpF9pA-25" value="Fecha_pago" style="ellipse;whiteSpace=wrap;html=1;" parent="1" vertex="1">
          <mxGeometry x="-710" y="260.00000000000006" width="120" height="80" as="geometry" />
        </mxCell>
        <mxCell id="-V9PEWpt8kwC3jf9DyMC-38" style="edgeStyle=orthogonalEdgeStyle;rounded=0;orthogonalLoop=1;jettySize=auto;html=1;entryX=0.75;entryY=0;entryDx=0;entryDy=0;" parent="1" source="-V9PEWpt8kwC3jf9DyMC-36" target="PH0fKFDygFaY0S8TYysQ-26" edge="1">
          <mxGeometry relative="1" as="geometry" />
        </mxCell>
        <mxCell id="-V9PEWpt8kwC3jf9DyMC-36" value="id_cliente" style="ellipse;whiteSpace=wrap;html=1;" parent="1" vertex="1">
          <mxGeometry x="-440" y="60.00000000000006" width="120" height="80" as="geometry" />
        </mxCell>
        <mxCell id="-V9PEWpt8kwC3jf9DyMC-39" style="edgeStyle=orthogonalEdgeStyle;rounded=0;orthogonalLoop=1;jettySize=auto;html=1;entryX=0.25;entryY=0;entryDx=0;entryDy=0;exitX=0.5;exitY=1;exitDx=0;exitDy=0;" parent="1" source="-V9PEWpt8kwC3jf9DyMC-37" target="PH0fKFDygFaY0S8TYysQ-26" edge="1">
          <mxGeometry relative="1" as="geometry">
            <Array as="points">
              <mxPoint x="-510" y="130" />
              <mxPoint x="-510" y="130" />
            </Array>
          </mxGeometry>
        </mxCell>
        <mxCell id="-V9PEWpt8kwC3jf9DyMC-37" value="codigo_auto" style="ellipse;whiteSpace=wrap;html=1;" parent="1" vertex="1">
          <mxGeometry x="-600" y="40" width="120" height="80" as="geometry" />
        </mxCell>
        <mxCell id="73-wHCDdlTz_QuVUMdYH-9" style="edgeStyle=orthogonalEdgeStyle;rounded=0;orthogonalLoop=1;jettySize=auto;html=1;" edge="1" parent="1" source="-V9PEWpt8kwC3jf9DyMC-40" target="PH0fKFDygFaY0S8TYysQ-26">
          <mxGeometry relative="1" as="geometry" />
        </mxCell>
        <mxCell id="-V9PEWpt8kwC3jf9DyMC-40" value="es vendido" style="rhombus;whiteSpace=wrap;html=1;" parent="1" vertex="1">
          <mxGeometry x="-250" y="210" width="80" height="80" as="geometry" />
        </mxCell>
        <mxCell id="-V9PEWpt8kwC3jf9DyMC-48" value="tiene" style="rhombus;whiteSpace=wrap;html=1;" parent="1" vertex="1">
          <mxGeometry x="10" y="390" width="80" height="80" as="geometry" />
        </mxCell>
        <mxCell id="_848j0c37ikoBSJLKILt-46" style="edgeStyle=orthogonalEdgeStyle;rounded=0;orthogonalLoop=1;jettySize=auto;html=1;exitX=0;exitY=0.5;exitDx=0;exitDy=0;entryX=1;entryY=0.75;entryDx=0;entryDy=0;" parent="1" source="j67aejT58WKei2PpF9pA-17" target="-V9PEWpt8kwC3jf9DyMC-17" edge="1">
          <mxGeometry relative="1" as="geometry" />
        </mxCell>
        <mxCell id="_848j0c37ikoBSJLKILt-54" style="edgeStyle=orthogonalEdgeStyle;rounded=0;orthogonalLoop=1;jettySize=auto;html=1;exitX=1;exitY=1;exitDx=0;exitDy=0;entryX=0;entryY=0;entryDx=0;entryDy=0;" parent="1" source="lVZvbjXJIHgR8obfk--g-2" target="PH0fKFDygFaY0S8TYysQ-26" edge="1">
          <mxGeometry relative="1" as="geometry" />
        </mxCell>
        <mxCell id="lVZvbjXJIHgR8obfk--g-2" value="id" style="ellipse;whiteSpace=wrap;html=1;" parent="1" vertex="1">
          <mxGeometry x="-690" y="140" width="80" height="60" as="geometry" />
        </mxCell>
        <mxCell id="j67aejT58WKei2PpF9pA-31" style="edgeStyle=orthogonalEdgeStyle;rounded=0;orthogonalLoop=1;jettySize=auto;html=1;exitX=1;exitY=1;exitDx=0;exitDy=0;entryX=0;entryY=0.25;entryDx=0;entryDy=0;" parent="1" source="lVZvbjXJIHgR8obfk--g-1" target="-V9PEWpt8kwC3jf9DyMC-17" edge="1">
          <mxGeometry relative="1" as="geometry">
            <Array as="points">
              <mxPoint x="-27" y="758" />
              <mxPoint x="-30" y="758" />
              <mxPoint x="-30" y="735" />
            </Array>
          </mxGeometry>
        </mxCell>
        <mxCell id="lVZvbjXJIHgR8obfk--g-1" value="id" style="ellipse;whiteSpace=wrap;html=1;" parent="1" vertex="1">
          <mxGeometry x="-129.56" y="810" width="120" height="80" as="geometry" />
        </mxCell>
        <mxCell id="_848j0c37ikoBSJLKILt-67" style="edgeStyle=orthogonalEdgeStyle;rounded=0;orthogonalLoop=1;jettySize=auto;html=1;exitX=0.5;exitY=0;exitDx=0;exitDy=0;entryX=0.808;entryY=1.034;entryDx=0;entryDy=0;entryPerimeter=0;" parent="1" source="PH0fKFDygFaY0S8TYysQ-30" target="PH0fKFDygFaY0S8TYysQ-26" edge="1">
          <mxGeometry relative="1" as="geometry">
            <Array as="points">
              <mxPoint x="-440" y="370" />
              <mxPoint x="-443" y="370" />
            </Array>
          </mxGeometry>
        </mxCell>
        <mxCell id="_848j0c37ikoBSJLKILt-69" value="realiza" style="rhombus;whiteSpace=wrap;html=1;" parent="1" vertex="1">
          <mxGeometry x="-930" y="200" width="80" height="80" as="geometry" />
        </mxCell>
        <mxCell id="73-wHCDdlTz_QuVUMdYH-1" value="&lt;font style=&quot;vertical-align: inherit;&quot;&gt;&lt;font style=&quot;vertical-align: inherit;&quot;&gt;telefono&lt;/font&gt;&lt;/font&gt;" style="ellipse;whiteSpace=wrap;html=1;" vertex="1" parent="1">
          <mxGeometry x="-1370" y="70" width="120" height="80" as="geometry" />
        </mxCell>
        <mxCell id="73-wHCDdlTz_QuVUMdYH-5" style="edgeStyle=orthogonalEdgeStyle;rounded=0;orthogonalLoop=1;jettySize=auto;html=1;entryX=0.5;entryY=0;entryDx=0;entryDy=0;" edge="1" parent="1" source="73-wHCDdlTz_QuVUMdYH-2" target="d1OCv34pY1rkLHPsV5Z9-1">
          <mxGeometry relative="1" as="geometry" />
        </mxCell>
        <mxCell id="73-wHCDdlTz_QuVUMdYH-2" value="&lt;font style=&quot;vertical-align: inherit;&quot;&gt;&lt;font style=&quot;vertical-align: inherit;&quot;&gt;e-mail&lt;/font&gt;&lt;/font&gt;" style="ellipse;whiteSpace=wrap;html=1;" vertex="1" parent="1">
          <mxGeometry x="-1160" y="60" width="120" height="80" as="geometry" />
        </mxCell>
        <mxCell id="73-wHCDdlTz_QuVUMdYH-4" style="edgeStyle=orthogonalEdgeStyle;rounded=0;orthogonalLoop=1;jettySize=auto;html=1;entryX=0.092;entryY=0.083;entryDx=0;entryDy=0;entryPerimeter=0;" edge="1" parent="1" source="73-wHCDdlTz_QuVUMdYH-1" target="d1OCv34pY1rkLHPsV5Z9-1">
          <mxGeometry relative="1" as="geometry" />
        </mxCell>
        <mxCell id="73-wHCDdlTz_QuVUMdYH-7" style="edgeStyle=orthogonalEdgeStyle;rounded=0;orthogonalLoop=1;jettySize=auto;html=1;entryX=1;entryY=0.5;entryDx=0;entryDy=0;" edge="1" parent="1" source="73-wHCDdlTz_QuVUMdYH-6" target="PH0fKFDygFaY0S8TYysQ-1">
          <mxGeometry relative="1" as="geometry" />
        </mxCell>
        <mxCell id="73-wHCDdlTz_QuVUMdYH-6" value="&lt;font style=&quot;vertical-align: inherit;&quot;&gt;&lt;font style=&quot;vertical-align: inherit;&quot;&gt;&lt;font style=&quot;vertical-align: inherit;&quot;&gt;&lt;font style=&quot;vertical-align: inherit;&quot;&gt;Detalle_auto&lt;/font&gt;&lt;/font&gt;&lt;/font&gt;&lt;/font&gt;" style="ellipse;whiteSpace=wrap;html=1;" vertex="1" parent="1">
          <mxGeometry x="240.22" y="190" width="79.56" height="70" as="geometry" />
        </mxCell>
        <mxCell id="73-wHCDdlTz_QuVUMdYH-10" value="Factura" style="rounded=0;whiteSpace=wrap;html=1;" vertex="1" parent="1">
          <mxGeometry x="-810" y="700" width="120" height="60" as="geometry" />
        </mxCell>
        <mxCell id="73-wHCDdlTz_QuVUMdYH-16" value="" style="edgeStyle=orthogonalEdgeStyle;rounded=0;orthogonalLoop=1;jettySize=auto;html=1;" edge="1" parent="1" source="73-wHCDdlTz_QuVUMdYH-11" target="73-wHCDdlTz_QuVUMdYH-10">
          <mxGeometry relative="1" as="geometry" />
        </mxCell>
        <mxCell id="73-wHCDdlTz_QuVUMdYH-11" value="codigo" style="ellipse;whiteSpace=wrap;html=1;" vertex="1" parent="1">
          <mxGeometry x="-830" y="820" width="90" height="60" as="geometry" />
        </mxCell>
        <mxCell id="73-wHCDdlTz_QuVUMdYH-20" value="" style="edgeStyle=orthogonalEdgeStyle;rounded=0;orthogonalLoop=1;jettySize=auto;html=1;" edge="1" parent="1" source="73-wHCDdlTz_QuVUMdYH-12" target="73-wHCDdlTz_QuVUMdYH-10">
          <mxGeometry relative="1" as="geometry" />
        </mxCell>
        <mxCell id="73-wHCDdlTz_QuVUMdYH-12" value="NumTarjeta" style="ellipse;whiteSpace=wrap;html=1;" vertex="1" parent="1">
          <mxGeometry x="-840" y="590" width="90" height="60" as="geometry" />
        </mxCell>
        <mxCell id="73-wHCDdlTz_QuVUMdYH-17" style="edgeStyle=orthogonalEdgeStyle;rounded=0;orthogonalLoop=1;jettySize=auto;html=1;entryX=0.75;entryY=1;entryDx=0;entryDy=0;" edge="1" parent="1" source="73-wHCDdlTz_QuVUMdYH-13" target="73-wHCDdlTz_QuVUMdYH-10">
          <mxGeometry relative="1" as="geometry" />
        </mxCell>
        <mxCell id="73-wHCDdlTz_QuVUMdYH-13" value="codSeguridad" style="ellipse;whiteSpace=wrap;html=1;" vertex="1" parent="1">
          <mxGeometry x="-700" y="800" width="90" height="60" as="geometry" />
        </mxCell>
        <mxCell id="73-wHCDdlTz_QuVUMdYH-14" value="vencimineto&lt;span style=&quot;color: rgba(0, 0, 0, 0); font-family: monospace; font-size: 0px; text-align: start; text-wrap: nowrap;&quot;&gt;%3CmxGraphModel%3E%3Croot%3E%3CmxCell%20id%3D%220%22%2F%3E%3CmxCell%20id%3D%221%22%20parent%3D%220%22%2F%3E%3CmxCell%20id%3D%222%22%20value%3D%22codigo%22%20style%3D%22ellipse%3BwhiteSpace%3Dwrap%3Bhtml%3D1%3B%22%20vertex%3D%221%22%20parent%3D%221%22%3E%3CmxGeometry%20x%3D%22-770%22%20y%3D%22540%22%20width%3D%2290%22%20height%3D%2260%22%20as%3D%22geometry%22%2F%3E%3C%2FmxCell%3E%3C%2Froot%3E%3C%2FmxGraphModel%3E&lt;/span&gt;&lt;span style=&quot;color: rgba(0, 0, 0, 0); font-family: monospace; font-size: 0px; text-align: start; text-wrap: nowrap;&quot;&gt;%3CmxGraphModel%3E%3Croot%3E%3CmxCell%20id%3D%220%22%2F%3E%3CmxCell%20id%3D%221%22%20parent%3D%220%22%2F%3E%3CmxCell%20id%3D%222%22%20value%3D%22codigo%22%20style%3D%22ellipse%3BwhiteSpace%3Dwrap%3Bhtml%3D1%3B%22%20vertex%3D%221%22%20parent%3D%221%22%3E%3CmxGeometry%20x%3D%22-770%22%20y%3D%22540%22%20width%3D%2290%22%20height%3D%2260%22%20as%3D%22geometry%22%2F%3E%3C%2FmxCell%3E%3C%2Froot%3E%3C%2FmxGraphModel%3E&lt;/span&gt;&lt;span style=&quot;color: rgba(0, 0, 0, 0); font-family: monospace; font-size: 0px; text-align: start; text-wrap: nowrap;&quot;&gt;%3CmxGraphModel%3E%3Croot%3E%3CmxCell%20id%3D%220%22%2F%3E%3CmxCell%20id%3D%221%22%20parent%3D%220%22%2F%3E%3CmxCell%20id%3D%222%22%20value%3D%22codigo%22%20style%3D%22ellipse%3BwhiteSpace%3Dwrap%3Bhtml%3D1%3B%22%20vertex%3D%221%22%20parent%3D%221%22%3E%3CmxGeometry%20x%3D%22-770%22%20y%3D%22540%22%20width%3D%2290%22%20height%3D%2260%22%20as%3D%22geometry%22%2F%3E%3C%2FmxCell%3E%3C%2Froot%3E%3C%2FmxGraphModel%3E&lt;/span&gt;" style="ellipse;whiteSpace=wrap;html=1;" vertex="1" parent="1">
          <mxGeometry x="-930" y="780" width="90" height="60" as="geometry" />
        </mxCell>
        <mxCell id="73-wHCDdlTz_QuVUMdYH-15" value="titular" style="ellipse;whiteSpace=wrap;html=1;" vertex="1" parent="1">
          <mxGeometry x="-960" y="680" width="90" height="60" as="geometry" />
        </mxCell>
        <mxCell id="73-wHCDdlTz_QuVUMdYH-18" style="edgeStyle=orthogonalEdgeStyle;rounded=0;orthogonalLoop=1;jettySize=auto;html=1;exitX=1;exitY=0;exitDx=0;exitDy=0;entryX=0.172;entryY=1.007;entryDx=0;entryDy=0;entryPerimeter=0;" edge="1" parent="1" source="73-wHCDdlTz_QuVUMdYH-14" target="73-wHCDdlTz_QuVUMdYH-10">
          <mxGeometry relative="1" as="geometry" />
        </mxCell>
        <mxCell id="73-wHCDdlTz_QuVUMdYH-19" style="edgeStyle=orthogonalEdgeStyle;rounded=0;orthogonalLoop=1;jettySize=auto;html=1;entryX=-0.002;entryY=0.37;entryDx=0;entryDy=0;entryPerimeter=0;" edge="1" parent="1" source="73-wHCDdlTz_QuVUMdYH-15" target="73-wHCDdlTz_QuVUMdYH-10">
          <mxGeometry relative="1" as="geometry" />
        </mxCell>
        <mxCell id="73-wHCDdlTz_QuVUMdYH-23" style="edgeStyle=orthogonalEdgeStyle;rounded=0;orthogonalLoop=1;jettySize=auto;html=1;" edge="1" parent="1" source="73-wHCDdlTz_QuVUMdYH-21">
          <mxGeometry relative="1" as="geometry">
            <mxPoint x="-690" y="730" as="targetPoint" />
          </mxGeometry>
        </mxCell>
        <mxCell id="73-wHCDdlTz_QuVUMdYH-21" value="genera" style="rhombus;whiteSpace=wrap;html=1;" vertex="1" parent="1">
          <mxGeometry x="-520" y="690" width="80" height="80" as="geometry" />
        </mxCell>
        <mxCell id="73-wHCDdlTz_QuVUMdYH-26" value="1:M" style="text;html=1;align=center;verticalAlign=middle;resizable=0;points=[];autosize=1;strokeColor=none;fillColor=none;" vertex="1" parent="1">
          <mxGeometry x="-920" y="148" width="40" height="30" as="geometry" />
        </mxCell>
        <mxCell id="73-wHCDdlTz_QuVUMdYH-27" value="1:M" style="text;html=1;align=center;verticalAlign=middle;resizable=0;points=[];autosize=1;strokeColor=none;fillColor=none;" vertex="1" parent="1">
          <mxGeometry x="-250" y="168" width="40" height="30" as="geometry" />
        </mxCell>
        <mxCell id="73-wHCDdlTz_QuVUMdYH-28" value="1:1" style="text;html=1;align=center;verticalAlign=middle;resizable=0;points=[];autosize=1;strokeColor=none;fillColor=none;" vertex="1" parent="1">
          <mxGeometry x="100" y="428" width="40" height="30" as="geometry" />
        </mxCell>
        <mxCell id="73-wHCDdlTz_QuVUMdYH-29" value="1:1" style="text;html=1;align=center;verticalAlign=middle;resizable=0;points=[];autosize=1;strokeColor=none;fillColor=none;" vertex="1" parent="1">
          <mxGeometry x="-570" y="658" width="40" height="30" as="geometry" />
        </mxCell>
        <mxCell id="73-wHCDdlTz_QuVUMdYH-32" style="edgeStyle=orthogonalEdgeStyle;rounded=0;orthogonalLoop=1;jettySize=auto;html=1;entryX=1;entryY=0.75;entryDx=0;entryDy=0;" edge="1" parent="1" source="73-wHCDdlTz_QuVUMdYH-31" target="PH0fKFDygFaY0S8TYysQ-1">
          <mxGeometry relative="1" as="geometry" />
        </mxCell>
        <mxCell id="73-wHCDdlTz_QuVUMdYH-31" value="&lt;font style=&quot;vertical-align: inherit;&quot;&gt;&lt;font style=&quot;vertical-align: inherit;&quot;&gt;&lt;font style=&quot;vertical-align: inherit;&quot;&gt;&lt;font style=&quot;vertical-align: inherit;&quot;&gt;imagen&lt;/font&gt;&lt;/font&gt;&lt;/font&gt;&lt;/font&gt;" style="ellipse;whiteSpace=wrap;html=1;" vertex="1" parent="1">
          <mxGeometry x="230.44" y="260" width="79.56" height="70" as="geometry" />
        </mxCell>
      </root>
    </mxGraphModel>
  </diagram>
</mxfile>
